<svg width="40" height="41" viewBox="0 0 40 41" fill="none" xmlns="http://www.w3.org/2000/svg">
<ellipse cx="20" cy="19.8431" rx="20" ry="19.4425" fill="#ECEDEE"/>
<g clip-path="url(#clip0_175_1266)">
<rect x="4" y="9" width="32" height="32" rx="16" fill="#1E73E3"/>
<rect x="31.819" y="11.1574" width="3.01983" height="35.8771" transform="rotate(45 31.819 11.1574)" fill="#D80027" stroke="white" stroke-width="1.11257"/>
<rect y="-0.786705" width="3.01983" height="33.4301" transform="matrix(-0.707107 0.707107 0.707107 0.707107 9.14173 13.4439)" fill="#D80027" stroke="white" stroke-width="1.11257"/>
<path d="M36.7322 22.8001L36.633 22.0381H35.8646H22.962V9.13544V8.36696L22.2 8.26776C21.4799 8.17403 20.7457 8.125 20 8.125C19.2543 8.125 18.5201 8.17403 17.8001 8.26776L17.0381 8.36697V9.13544V22.038H4.13544H3.36696L3.26776 22.8C3.17403 23.5201 3.125 24.2542 3.125 25C3.125 25.7458 3.17403 26.48 3.26776 27.1999L3.36697 27.9619H4.13544H17.038V40.8646V41.633L17.8 41.7322C18.5201 41.826 19.2543 41.875 20 41.875C20.7457 41.875 21.4799 41.826 22.2 41.7322L22.9619 41.633V40.8646V27.962H35.8646H36.633L36.7322 27.2C36.826 26.4799 36.875 25.7458 36.875 25C36.875 24.2542 36.826 23.52 36.7322 22.8001Z" fill="#D80027" stroke="white" stroke-width="1.75"/>
</g>
<defs>
<clipPath id="clip0_175_1266">
<rect x="4" y="9" width="32" height="32" rx="16" fill="white"/>
</clipPath>
</defs>
</svg>
