<svg width="42" height="42" viewBox="0 0 42 42" fill="none" xmlns="http://www.w3.org/2000/svg">
<path d="M21 40.7857C32.3084 40.7857 41.5 31.8703 41.5 20.8431C41.5 9.81597 32.3084 0.900635 21 0.900635C9.69158 0.900635 0.5 9.81597 0.5 20.8431C0.5 31.8703 9.69158 40.7857 21 40.7857Z" fill="#ECEDEE" stroke="#1E73E3"/>
<g clip-path="url(#clip0_175_1256)">
<path d="M21 42C29.8366 42 37 34.8366 37 26C37 17.1634 29.8366 10 21 10C12.1634 10 5 17.1634 5 26C5 34.8366 12.1634 42 21 42Z" fill="white"/>
<path d="M36.8646 23.9131H23.0871H23.087V10.1354C22.4038 10.0465 21.7073 10 21 10C20.2927 10 19.5962 10.0465 18.9131 10.1354V23.9129V23.913H5.13544C5.0465 24.5962 5 25.2927 5 26C5 26.7074 5.0465 27.4038 5.13544 28.0869H18.9129H18.913V41.8646C19.5962 41.9535 20.2927 42 21 42C21.7073 42 22.4038 41.9536 23.0869 41.8646V28.0871V28.087H36.8646C36.9535 27.4038 37 26.7074 37 26C37 25.2927 36.9535 24.5962 36.8646 23.9131Z" fill="#D80027"/>
<path d="M14.7391 17.6522V15.5652H12.6522V17.6522H10.5652V19.7391H12.6522V21.8261H14.7391V19.7391H16.8261V17.6522H14.7391Z" fill="#D80027"/>
<path d="M29.3478 17.6522V15.5652H27.2609V17.6522H25.174V19.7391H27.2609V21.8261H29.3478V19.7391H31.4348V17.6522H29.3478Z" fill="#D80027"/>
<path d="M14.7391 32.2608V30.1738H12.6522V32.2608H10.5652V34.3477H12.6522V36.4347H14.7391V34.3477H16.8261V32.2608H14.7391Z" fill="#D80027"/>
<path d="M29.3478 32.2608V30.1738H27.2609V32.2608H25.174V34.3477H27.2609V36.4347H29.3478V34.3477H31.4348V32.2608H29.3478Z" fill="#D80027"/>
</g>
<defs>
<clipPath id="clip0_175_1256">
<rect width="32" height="32" fill="white" transform="translate(5 10)"/>
</clipPath>
</defs>
</svg>
