<svg width="20" height="20" viewBox="0 0 20 20" fill="none" xmlns="http://www.w3.org/2000/svg">
<path d="M12.5 18.9584H7.49996C2.97496 18.9584 1.04163 17.0251 1.04163 12.5001V7.50008C1.04163 2.97508 2.97496 1.04175 7.49996 1.04175H12.5C17.025 1.04175 18.9583 2.97508 18.9583 7.50008V12.5001C18.9583 17.0251 17.025 18.9584 12.5 18.9584ZM7.49996 2.29175C3.65829 2.29175 2.29163 3.65841 2.29163 7.50008V12.5001C2.29163 16.3417 3.65829 17.7084 7.49996 17.7084H12.5C16.3416 17.7084 17.7083 16.3417 17.7083 12.5001V7.50008C17.7083 3.65841 16.3416 2.29175 12.5 2.29175H7.49996Z" fill="#161718"/>
<path d="M7.14147 13.35C6.98314 13.35 6.8248 13.2917 6.6998 13.1667C6.45814 12.925 6.45814 12.525 6.6998 12.2834L12.1581 6.82505C12.3998 6.58338 12.7998 6.58338 13.0415 6.82505C13.2831 7.06672 13.2831 7.46671 13.0415 7.70838L7.58314 13.1667C7.45814 13.2917 7.2998 13.35 7.14147 13.35Z" fill="#161718"/>
<path d="M7.48338 9.25824C6.57505 9.25824 5.83337 8.51659 5.83337 7.60826C5.83337 6.69993 6.57505 5.95825 7.48338 5.95825C8.39172 5.95825 9.13337 6.69993 9.13337 7.60826C9.13337 8.51659 8.39172 9.25824 7.48338 9.25824ZM7.48338 7.21659C7.26672 7.21659 7.08337 7.3916 7.08337 7.6166C7.08337 7.8416 7.25838 8.01659 7.48338 8.01659C7.70838 8.01659 7.88337 7.8416 7.88337 7.6166C7.88337 7.3916 7.70005 7.21659 7.48338 7.21659Z" fill="#161718"/>
<path d="M12.9333 14.0334C12.025 14.0334 11.2833 13.2917 11.2833 12.3834C11.2833 11.475 12.025 10.7334 12.9333 10.7334C13.8416 10.7334 14.5833 11.475 14.5833 12.3834C14.5833 13.2917 13.8416 14.0334 12.9333 14.0334ZM12.9333 11.9917C12.7166 11.9917 12.5333 12.1667 12.5333 12.3917C12.5333 12.6167 12.7083 12.7917 12.9333 12.7917C13.1583 12.7917 13.3333 12.6167 13.3333 12.3917C13.3333 12.1667 13.1583 11.9917 12.9333 11.9917Z" fill="#161718"/>
</svg>
